<svg xmlns="http://www.w3.org/2000/svg" xmlns:xlink="http://www.w3.org/1999/xlink" width="43" height="43" viewBox="0 0 43 43">
  <defs>
    <filter id="Full_Scrren_Viwe_button" x="0" y="0" width="43" height="43" filterUnits="userSpaceOnUse">
      <feOffset dy="3" input="SourceAlpha"/>
      <feGaussianBlur stdDeviation="3" result="blur"/>
      <feFlood flood-opacity="0.161"/>
      <feComposite operator="in" in2="blur"/>
      <feComposite in="SourceGraphic"/>
    </filter>
    <filter id="Full_Scrren_Viwe_button-2" x="0" y="0" width="43" height="43" filterUnits="userSpaceOnUse">
      <feOffset dy="3" input="SourceAlpha"/>
      <feGaussianBlur stdDeviation="3" result="blur-2"/>
      <feFlood flood-opacity="0.161" result="color"/>
      <feComposite operator="out" in="SourceGraphic" in2="blur-2"/>
      <feComposite operator="in" in="color"/>
      <feComposite operator="in" in2="SourceGraphic"/>
    </filter>
  </defs>
  <g data-type="innerShadowGroup">
    <g transform="matrix(1, 0, 0, 1, 0, 0)" filter="url(#Full_Scrren_Viwe_button)">
      <path id="Full_Scrren_Viwe_button-3" data-name="Full Scrren Viwe button" d="M6085-8952h-8.929v-3.571h5.357v-5.357H6085V-8952Zm-16.072,0H6060v-8.929h3.571v5.357h5.357V-8952Zm8.552-7.52H6072.5l1.869-1.868-1.869-1.867,1.246-1.246,1.868,1.868,1.868-1.868v4.981Zm-6.226-4.981h0l-1.868-1.866-1.868,1.866v-4.979h4.98l-1.867,1.868,1.867,1.866-1.245,1.245Zm10.174-3.57v-5.357h-5.357V-8977H6085v8.929h-3.572Zm-21.428,0V-8977h8.928v3.571h-5.357v5.357H6060Z" transform="translate(-6051 8983)" fill="#ff424d"/>
    </g>
    <g transform="matrix(1, 0, 0, 1, 0, 0)" filter="url(#Full_Scrren_Viwe_button-2)">
      <path id="Full_Scrren_Viwe_button-4" data-name="Full Scrren Viwe button" d="M6085-8952h-8.929v-3.571h5.357v-5.357H6085V-8952Zm-16.072,0H6060v-8.929h3.571v5.357h5.357V-8952Zm8.552-7.52H6072.5l1.869-1.868-1.869-1.867,1.246-1.246,1.868,1.868,1.868-1.868v4.981Zm-6.226-4.981h0l-1.868-1.866-1.868,1.866v-4.979h4.98l-1.867,1.868,1.867,1.866-1.245,1.245Zm10.174-3.57v-5.357h-5.357V-8977H6085v8.929h-3.572Zm-21.428,0V-8977h8.928v3.571h-5.357v5.357H6060Z" transform="translate(-6051 8983)" fill="#fff"/>
    </g>
  </g>
</svg>
